<svg width="11" height="20" viewBox="0 0 11 20" fill="none" xmlns="http://www.w3.org/2000/svg">
<path d="M3.37792 9.85517L10.5379 17.0151C10.846 17.3232 10.9982 17.6921 10.9945 18.1218C10.9909 18.5515 10.835 18.9204 10.527 19.2285C10.2189 19.5366 9.84764 19.6906 9.4132 19.6906C8.97875 19.6906 8.60748 19.5366 8.29941 19.2285L0.787668 11.7419C0.520372 11.4746 0.322265 11.1774 0.193349 10.8504C0.0644497 10.5234 0 10.1916 0 9.85517C0 9.51869 0.0644497 9.18694 0.193349 8.85993C0.322265 8.53291 0.520372 8.23576 0.787668 7.96846L8.29941 0.456715C8.60748 0.148646 8.98056 -0.0035714 9.41865 6.35847e-05C9.85673 0.00369857 10.2298 0.159559 10.5379 0.467645C10.846 0.775713 11 1.14697 11 1.58141C11 2.01584 10.846 2.38711 10.5379 2.69519L3.37792 9.85517Z" fill="black"/>
</svg>
