<svg width="16" height="16" viewBox="0 0 16 16" fill="none" xmlns="http://www.w3.org/2000/svg">
<path d="M4.8 16C4.36 16 3.98333 15.8433 3.67 15.53C3.35667 15.2167 3.2 14.84 3.2 14.4C3.2 13.96 3.35667 13.5833 3.67 13.27C3.98333 12.9567 4.36 12.8 4.8 12.8C5.24 12.8 5.61667 12.9567 5.93 13.27C6.24333 13.5833 6.4 13.96 6.4 14.4C6.4 14.84 6.24333 15.2167 5.93 15.53C5.61667 15.8433 5.24 16 4.8 16ZM12.8 16C12.36 16 11.9833 15.8433 11.67 15.53C11.3567 15.2167 11.2 14.84 11.2 14.4C11.2 13.96 11.3567 13.5833 11.67 13.27C11.9833 12.9567 12.36 12.8 12.8 12.8C13.24 12.8 13.6167 12.9567 13.93 13.27C14.2433 13.5833 14.4 13.96 14.4 14.4C14.4 14.84 14.2433 15.2167 13.93 15.53C13.6167 15.8433 13.24 16 12.8 16ZM3.36 1.6H15.16C15.4667 1.6 15.7 1.73667 15.86 2.01C16.02 2.28333 16.0267 2.56 15.88 2.84L13.04 7.96C12.8933 8.22667 12.6967 8.43333 12.45 8.58C12.2033 8.72667 11.9333 8.8 11.64 8.8H5.68L4.8 10.4H14.4V12H4.8C4.2 12 3.74667 11.7367 3.44 11.21C3.13333 10.6833 3.12 10.16 3.4 9.64L4.48 7.68L1.6 1.6H0V0H2.6L3.36 1.6Z" fill="#00BB07"/>
</svg>
