<svg width="19" height="21" viewBox="0 0 19 21" fill="none" xmlns="http://www.w3.org/2000/svg">
<path d="M15.6541 21C14.7418 21 13.9666 20.6807 13.3282 20.0422C12.6899 19.4037 12.3707 18.6284 12.3707 17.7163C12.3707 17.5921 12.3793 17.4634 12.3965 17.3304C12.4137 17.1973 12.4395 17.0751 12.4738 16.9638L5.50799 12.9097C5.20358 13.1839 4.86102 13.3981 4.48029 13.5523C4.09957 13.7066 3.70071 13.7837 3.28373 13.7837C2.37158 13.7837 1.59625 13.4644 0.957752 12.8259C0.319251 12.1873 0 11.4119 0 10.4996C0 9.58738 0.319251 8.81208 0.957752 8.17375C1.59625 7.53542 2.37158 7.21626 3.28373 7.21626C3.70071 7.21626 4.09957 7.29339 4.48029 7.44764C4.86102 7.6019 5.20358 7.81611 5.50799 8.09028L12.4738 4.03618C12.4395 3.92486 12.4137 3.80268 12.3965 3.66962C12.3793 3.53655 12.3707 3.40792 12.3707 3.28373C12.3707 2.37158 12.69 1.59625 13.3286 0.957753C13.9672 0.319252 14.7426 0 15.6548 0C16.5671 0 17.3424 0.319285 17.9807 0.957856C18.619 1.59643 18.9382 2.37184 18.9382 3.28409C18.9382 4.19635 18.6189 4.97164 17.9804 5.60997C17.3419 6.2483 16.5666 6.56747 15.6545 6.56747C15.2375 6.56747 14.8386 6.49239 14.4579 6.34224C14.0772 6.19209 13.7346 5.97993 13.4302 5.70577L6.46438 9.74754C6.49874 9.85886 6.52451 9.98105 6.54169 10.1141C6.55887 10.2472 6.56747 10.3758 6.56747 10.5C6.56747 10.6242 6.55887 10.7528 6.54169 10.8859C6.52451 11.0189 6.49874 11.1411 6.46438 11.2524L13.4302 15.2942C13.7346 15.0201 14.0772 14.8079 14.4579 14.6577C14.8386 14.5076 15.2375 14.4325 15.6545 14.4325C16.5666 14.4325 17.3419 14.7518 17.9804 15.3904C18.6189 16.0289 18.9382 16.8044 18.9382 17.7166C18.9382 18.6289 18.6189 19.4042 17.9803 20.0425C17.3418 20.6808 16.5664 21 15.6541 21Z" fill="black" fill-opacity="0.75"/>
</svg>
