<svg width="40" height="50" viewBox="0 0 40 50" fill="none" xmlns="http://www.w3.org/2000/svg">
<path d="M36.6235 16.2712C35.3666 12.6247 32.3911 10.0178 28.8188 8.56562C27.1533 4.98924 23.5739 2.37531 19.66 1.87656C15.7461 1.37781 11.6259 3.01227 9.11711 6.05685C8.33193 7.00929 7.64091 8.13298 6.51221 8.63073C5.73404 8.97324 4.8527 8.96723 4.02446 9.16152C1.48664 9.75542 -0.350133 12.4865 0.0564789 15.0614C0.463091 17.6363 3.05299 19.6673 5.6509 19.449L35.5649 27.445C37.4848 24.099 37.8804 19.9177 36.6235 16.2712Z" fill="#2F2724"/>
<path d="M29.8042 6.00479C29.2594 7.05738 28.7146 8.10996 28.1697 9.16355C27.2063 5.01731 23.3024 1.42189 19.1141 0.663753C14.9258 -0.0943879 10.373 1.84453 8.01842 5.38987" stroke="#2F2724" stroke-miterlimit="10" stroke-linecap="round" stroke-linejoin="round"/>
<path d="M31 43.3279C31.2534 40.4586 31.5128 37.5813 31.7662 34.712C34.4252 34.745 37.0431 33.1937 38.292 30.8462C39.5409 28.4986 39.3626 25.46 37.8493 23.2748C36.336 21.0885 33.7241 19.9728 31.0871 20.3163C30.5433 21.2778 29.3906 21.8576 28.2949 21.7184C27.1993 21.5802 26.2268 20.7329 25.9394 19.6663C25.688 18.7309 25.9324 17.7454 26.0275 16.782C26.1227 15.8185 26.0075 14.7169 25.2564 14.106C24.1968 13.2457 22.6474 13.8586 21.2834 13.9087C18.7936 13.9998 16.4871 11.6753 16.5973 9.18656C12.9027 9.4169 9.08901 11.2787 7.01088 14.3423C4.66435 17.8005 3.58873 21.9578 3.35038 26.1301C3.19715 28.8031 3.52565 31.7245 4.96581 33.9809C6.40598 36.2383 8.73848 37.9078 11.3394 38.5437C11.1731 40.074 10.7025 41.4471 10.5362 42.9774C11.9644 45.2859 13.3274 47.6925 14.7566 50C20.2418 47.7296 25.5147 45.5984 31 43.3279Z" fill="#FBA778"/>
<path d="M31.6932 25.9227C32.6907 25.5592 33.6892 25.1966 34.6867 24.8331" stroke="#36241A" stroke-miterlimit="10" stroke-linecap="round" stroke-linejoin="round"/>
<path d="M32.0547 34.5838C31.4067 34.6419 30.7587 34.7 30.1108 34.7591" stroke="#36241A" stroke-miterlimit="10" stroke-linecap="round" stroke-linejoin="round"/>
<path d="M10.8958 38.5397C13.711 39.4901 16.7616 39.7355 19.6921 39.2478" stroke="#36241A" stroke-miterlimit="10" stroke-linecap="round" stroke-linejoin="round"/>
<path d="M16.4711 27.428C16.418 28.5757 17.4515 29.6584 18.6013 29.6594C19.751 29.6604 20.7856 28.5787 20.7335 27.43L16.4711 27.428Z" fill="white"/>
<path d="M15.0348 21.5792C14.4439 23.2227 13.8521 24.8652 13.2612 26.5086C13.6818 26.3454 14.1014 26.1822 14.5221 26.0189" stroke="#36241A" stroke-miterlimit="10" stroke-linecap="round" stroke-linejoin="round"/>
<path d="M6.9729 22.0699C7.22227 21.3549 8.02449 20.8801 8.77062 21.0043C9.51774 21.1295 10.1216 21.8386 10.1246 22.5957" stroke="#36241A" stroke-miterlimit="10" stroke-linecap="round" stroke-linejoin="round"/>
<path d="M20.2639 23.5923C20.4181 22.8532 21.1452 22.2783 21.8994 22.2973C22.6535 22.3164 23.3505 22.9273 23.4677 23.6734" stroke="#36241A" stroke-miterlimit="10" stroke-linecap="round" stroke-linejoin="round"/>
<path d="M5.90219 15.5892C6.68437 14.3824 8.18061 13.6793 9.60876 13.8476C11.0369 14.0158 12.3289 15.0474 12.8086 16.4034" stroke="#36241A" stroke-miterlimit="10" stroke-linecap="round" stroke-linejoin="round"/>
<path d="M20.0404 15.3318C21.3955 15.448 22.7505 15.5631 24.1055 15.6793" stroke="#36241A" stroke-miterlimit="10" stroke-linecap="round" stroke-linejoin="round"/>
</svg>
