<svg width="18" height="17" viewBox="0 0 18 17" fill="none" xmlns="http://www.w3.org/2000/svg">
<path d="M8.90019 14.2419L4.58604 16.8408C4.39545 16.9621 4.1962 17.0141 3.98829 16.9967C3.78038 16.9794 3.59846 16.9101 3.44253 16.7888C3.28659 16.6675 3.16531 16.5159 3.07868 16.334C2.99205 16.1521 2.97473 15.9485 3.0267 15.7233L4.17022 10.8114L0.34985 7.51079C0.176591 7.35485 0.0683041 7.17726 0.0249893 6.97801C-0.0183255 6.77877 -0.00533105 6.58385 0.0639726 6.39326C0.133276 6.20268 0.237232 6.04674 0.375839 5.92546C0.514447 5.80418 0.705032 5.72622 0.947595 5.69156L5.98944 5.24975L7.9386 0.623733C8.02523 0.415822 8.15951 0.259889 8.34143 0.155933C8.52335 0.0519778 8.70961 0 8.90019 0C9.09078 0 9.27703 0.0519778 9.45895 0.155933C9.64087 0.259889 9.77515 0.415822 9.86178 0.623733L11.8109 5.24975L16.8528 5.69156C17.0954 5.72622 17.2859 5.80418 17.4245 5.92546C17.5632 6.04674 17.6671 6.20268 17.7364 6.39326C17.8057 6.58385 17.8187 6.77877 17.7754 6.97801C17.7321 7.17726 17.6238 7.35485 17.4505 7.51079L13.6302 10.8114L14.7737 15.7233C14.8257 15.9485 14.8083 16.1521 14.7217 16.334C14.6351 16.5159 14.5138 16.6675 14.3579 16.7888C14.2019 16.9101 14.02 16.9794 13.8121 16.9967C13.6042 17.0141 13.4049 16.9621 13.2143 16.8408L8.90019 14.2419Z" fill="#FFD700"/>
</svg>
