<svg width="51" height="79" viewBox="0 0 51 79" fill="none" xmlns="http://www.w3.org/2000/svg">
<path d="M50.8434 51.8168C46.2453 41.513 42.3721 30.8859 39.264 20.0394C37.7316 20.2921 36.2657 20.3928 35.4954 21.741C32.1186 27.654 31.4118 34.1259 29.6619 40.7075L3.57108 55.9679L23.4267 74.8549L50.8434 51.8168Z" fill="#FBA778"/>
<path d="M25.6173 79C18.5373 79 12.7974 73.2601 12.7974 66.1801V22.6159C12.7974 17.7076 16.7764 13.7287 21.6847 13.7287H29.551C34.4592 13.7287 38.4382 17.7076 38.4382 22.6159V66.1801C38.4372 73.2601 32.6973 79 25.6173 79Z" fill="#88BAFF"/>
<path d="M25.3444 75.4238C27.6822 75.6816 30.1137 74.9294 31.8968 73.3961C33.6799 71.8627 34.7884 69.5701 34.883 67.2202" stroke="#36241A" stroke-miterlimit="10" stroke-linecap="round" stroke-linejoin="round"/>
<path d="M32.811 33.255H18.2533V48.9201H32.811V33.255Z" fill="white"/>
<path d="M24.6416 37.4846C26.3009 37.5954 27.9591 37.7061 29.6183 37.8159" stroke="#36241A" stroke-miterlimit="10" stroke-linecap="round" stroke-linejoin="round"/>
<path d="M24.6367 40.7085C26.0583 40.6531 27.48 40.5977 28.9016 40.5414" stroke="#36241A" stroke-miterlimit="10" stroke-linecap="round" stroke-linejoin="round"/>
<path d="M33.6166 14.6821H17.6182C16.3737 14.6821 15.3649 13.6733 15.3649 12.4288V9.90473C15.3649 8.6603 16.3737 7.65147 17.6182 7.65147H33.6166C34.861 7.65147 35.8698 8.6603 35.8698 9.90473V12.4288C35.8698 13.6733 34.861 14.6821 33.6166 14.6821Z" fill="#36241A"/>
<path d="M18.3754 9.29056C18.322 10.4756 18.2676 11.6596 18.2143 12.8447" stroke="white" stroke-miterlimit="10" stroke-linecap="round" stroke-linejoin="round"/>
<path d="M20.5067 9.29763C20.6285 10.3629 20.7503 11.4291 20.8721 12.4943" stroke="white" stroke-miterlimit="10" stroke-linecap="round" stroke-linejoin="round"/>
<path d="M26.0594 9.4708C26.0594 10.3588 26.0594 11.2478 26.0594 12.1359" stroke="white" stroke-miterlimit="10" stroke-linecap="round" stroke-linejoin="round"/>
<path d="M30.291 9.29462C30.3504 10.4202 30.4088 11.5449 30.4682 12.6705" stroke="white" stroke-miterlimit="10" stroke-linecap="round" stroke-linejoin="round"/>
<path d="M33.1243 9.646C33.0699 10.535 33.0155 11.423 32.9612 12.3121" stroke="white" stroke-miterlimit="10" stroke-linecap="round" stroke-linejoin="round"/>
<path d="M17.7621 7.71894C17.3392 5.62676 16.1441 3.6987 14.4577 2.39083C12.7713 1.08297 10.6066 0.404371 8.47516 0.515122C10.1253 4.17493 13.7791 7.22258 17.7621 7.71894Z" stroke="#36241A" stroke-miterlimit="10" stroke-linecap="round" stroke-linejoin="round"/>
<path d="M22.8537 39.4369C23.6178 38.5549 24.0347 37.3779 23.9954 36.211C23.193 35.8626 22.2677 35.3441 21.4653 34.9958C22.5647 34.585 23.3007 33.551 23.4426 32.3851L6.30248 24.1462C4.57477 24.5208 3.09676 25.881 2.57925 27.5715C2.06174 29.2619 2.5269 31.2162 3.74918 32.4928C1.84729 32.8875 0.240399 34.9273 0.274631 36.8695C0.308863 38.8116 1.60768 40.6149 3.34243 41.4878C1.55331 42.2369 -0.129105 44.2294 0.00782293 46.1635C0.144751 48.0986 1.61169 49.8666 3.48841 50.3579C2.26814 52.0111 2.17552 54.4577 3.57097 55.9659C4.96643 57.4741 7.46336 57.8074 9.20516 56.719C12.42 54.7104 16.0002 53.0431 19.0358 50.7727C20.0164 50.0397 20.2842 48.598 20.0184 47.4029C20.695 46.7474 21.3213 45.7768 21.9989 45.1204C22.8547 44.2908 22.8939 42.8701 22.5838 41.7193C21.6062 41.6398 20.7242 41.4123 19.7466 41.3327C20.9075 41.2069 22.0885 40.3199 22.8537 39.4369Z" fill="#FBA778"/>
<path d="M3.67358 32.3821C9.89776 33.2318 16.1209 34.0826 22.3451 34.9323" stroke="#36241A" stroke-miterlimit="10" stroke-linecap="round" stroke-linejoin="round"/>
<path d="M2.78351 41.4626C9.00266 41.3499 15.2208 41.2371 21.44 41.1253" stroke="#36241A" stroke-miterlimit="10" stroke-linecap="round" stroke-linejoin="round"/>
<path d="M4.18608 50.078C9.51218 48.8144 14.8373 47.5519 20.1634 46.2883" stroke="#36241A" stroke-miterlimit="10" stroke-linecap="round" stroke-linejoin="round"/>
<path d="M12.7341 54.5996C11.1353 55.4293 9.53644 56.2579 7.9366 57.0865" stroke="#36241A" stroke-miterlimit="10" stroke-linecap="round" stroke-linejoin="round"/>
</svg>
