<svg width="20" height="24" viewBox="0 0 20 24" fill="none" xmlns="http://www.w3.org/2000/svg">
<path d="M16.3234 12.7531C16.2931 9.71302 18.8025 8.25492 18.9147 8.18125C17.5044 6.11923 15.3072 5.83629 14.5253 5.80409C12.6569 5.61433 10.8778 6.90462 9.92997 6.90462C8.98409 6.90462 7.51964 5.8319 5.97032 5.85922C3.9322 5.88946 2.05359 7.04463 1.00477 8.86908C-1.11189 12.5409 0.463289 17.9826 2.5258 20.9627C3.53413 22.4193 4.73662 24.0584 6.31423 23.9984C7.83478 23.9384 8.40846 23.015 10.2466 23.015C12.0847 23.015 12.6008 23.9984 14.2092 23.9677C15.8443 23.9379 16.881 22.4832 17.881 21.0207C19.0386 19.3285 19.5152 17.6899 19.5435 17.607C19.5079 17.5904 16.3561 16.383 16.3234 12.7531Z" fill="black"/>
<path d="M13.3013 3.83185C14.138 2.8162 14.7048 1.40493 14.5507 0C13.3433 0.0487823 11.8818 0.802468 11.0149 1.81714C10.2383 2.71766 9.55926 4.15137 9.74122 5.53093C11.0881 5.63533 12.4618 4.84554 13.3013 3.83185Z" fill="black"/>
</svg>
