<svg width="223" height="199" viewBox="0 0 223 199" fill="none" xmlns="http://www.w3.org/2000/svg">
<path d="M187.191 45.389C171.813 39.8453 160.089 26.1148 147.05 16.2558C126.056 0.382186 97.0768 -4.30486 72.1487 4.14044C47.2206 12.5867 27.0587 33.9239 20.0381 59.2898C17.2577 69.3342 12.5597 78.9388 8.42973 88.5062C-0.594684 109.413 -3.47825 134.209 5.29167 155.224C14.8952 178.234 38.5188 193.415 63.1022 197.586C87.6857 201.757 113.03 196.238 136.231 187.105L184.863 148.332C206.036 141.538 221.833 120.568 222.523 98.3432C223.211 76.1193 208.109 52.9296 187.191 45.389Z" fill="white"/>
<mask id="mask0_405_5508" style="mask-type:luminance" maskUnits="userSpaceOnUse" x="0" y="0" width="223" height="199">
<path d="M187.191 45.389C171.813 39.8453 160.089 26.1148 147.05 16.2558C126.056 0.382186 97.0768 -4.30486 72.1487 4.14044C47.2206 12.5867 27.0587 33.9239 20.0381 59.2898C17.2577 69.3342 12.5597 78.9388 8.42973 88.5062C-0.594684 109.413 -3.47825 134.209 5.29167 155.224C14.8952 178.234 38.5188 193.415 63.1022 197.586C87.6857 201.757 113.03 196.238 136.231 187.105L184.863 148.332C206.036 141.538 221.833 120.568 222.523 98.3432C223.211 76.1193 208.109 52.9296 187.191 45.389Z" fill="white"/>
</mask>
<g mask="url(#mask0_405_5508)">
<path d="M205.203 151.808C203.484 137.669 192.247 117.147 183.897 100.441C177.243 87.1296 165.497 77.1663 151.679 71.6377C150.411 71.1297 149.156 70.6377 147.896 70.1388C148.888 69.5927 149.829 68.9635 150.683 68.2111C153.377 65.8395 155.14 62.2075 154.598 58.6596C153.936 54.3353 150.034 51.08 145.839 49.8426C141.643 48.6052 137.163 48.989 132.807 49.3847C126.672 49.9418 120.536 50.4989 114.401 51.056C109.431 51.5068 104.46 51.9587 99.4893 52.4096C96.8913 52.645 94.1009 52.9606 92.1512 54.693C89.8768 56.7119 89.6403 60.4892 91.3346 62.9479C86.873 64.1833 82.4114 65.4197 77.9508 66.655C65.4727 70.1117 55.3372 81.2162 50.8375 93.3576C43.9983 84.8021 36.8274 76.8247 29.9882 68.2692C19.6182 77.525 9.14303 86.8019 -1.22698 96.0578C4.30069 108.92 9.66603 122.626 15.1937 135.488C18.5752 143.355 25.3764 149.694 33.4159 152.643C41.4554 155.592 50.7112 155.04 58.343 151.156C54.8192 166.305 51.2573 181.371 47.7325 196.522C105.136 224.621 162.103 201.944 162.103 201.944L159.891 168.07L205.203 151.808Z" fill="#FFD700"/>
<path d="M90.7525 63.023C92.58 62.5521 94.4066 62.0812 96.2341 61.6093C98.5706 66.1871 101.56 71.0816 103.897 75.6584C112.857 71.8901 122.173 67.5988 131.133 63.8306C137.336 66.132 143.76 68.2421 149.963 70.5425" stroke="#36241A" stroke-miterlimit="10" stroke-linecap="round" stroke-linejoin="round"/>
<path d="M121.921 61.8718C128.093 59.0203 134.267 56.1678 140.44 53.3163C137.906 53.3754 134.841 53.2291 132.308 53.2882" stroke="#36241A" stroke-miterlimit="10" stroke-linecap="round" stroke-linejoin="round"/>
<path d="M102.157 61.0291C101.088 59.7286 100.019 58.4281 98.9502 57.1276" stroke="#36241A" stroke-miterlimit="10" stroke-linecap="round" stroke-linejoin="round"/>
<path d="M103.498 71.3571C100.844 77.519 98.1888 83.6809 95.5347 89.8438" stroke="#36241A" stroke-miterlimit="10" stroke-linecap="round" stroke-linejoin="round"/>
<path d="M106.248 71.5164C104.924 78.4768 103.6 85.4373 102.276 92.3977" stroke="#36241A" stroke-miterlimit="10" stroke-linecap="round" stroke-linejoin="round"/>
<path d="M50.4087 92.8707C49.529 96.3634 48.6493 99.8571 47.7706 103.351" stroke="#36241A" stroke-miterlimit="10" stroke-linecap="round" stroke-linejoin="round"/>
<path d="M71.773 69.4464C73.4723 72.3891 73.9913 75.9921 73.1917 79.2954C67.3204 103.562 63.0211 128.081 57.8932 152.515" stroke="#36241A" stroke-miterlimit="10" stroke-linecap="round" stroke-linejoin="round"/>
<path d="M7.02283 114.325C20.1512 106.369 32.5812 97.2601 44.1214 87.1366" stroke="#36241A" stroke-miterlimit="10" stroke-linecap="round" stroke-linejoin="round"/>
<path d="M5.96586 101.371C7.18521 103.767 8.40456 106.162 9.62392 108.558" stroke="#36241A" stroke-miterlimit="10" stroke-linecap="round" stroke-linejoin="round"/>
<path d="M9.79918 101.223C10.8602 103.227 11.9223 105.229 12.9833 107.233" stroke="#36241A" stroke-miterlimit="10" stroke-linecap="round" stroke-linejoin="round"/>
<path d="M20.2463 88.8308C22.2722 91.6433 24.2992 94.4567 26.3251 97.2691" stroke="#36241A" stroke-miterlimit="10" stroke-linecap="round" stroke-linejoin="round"/>
<path d="M24.9916 84.254C27.0836 87.1205 29.1757 89.9871 31.2677 92.8536" stroke="#36241A" stroke-miterlimit="10" stroke-linecap="round" stroke-linejoin="round"/>
<path d="M27.6877 81.0398C29.918 84.1107 32.1483 87.1826 34.3786 90.2546" stroke="#36241A" stroke-miterlimit="10" stroke-linecap="round" stroke-linejoin="round"/>
<path d="M32.7517 76.8437C35.0631 79.7213 37.3746 82.5988 39.686 85.4764" stroke="#36241A" stroke-miterlimit="10" stroke-linecap="round" stroke-linejoin="round"/>
<path d="M153.924 73.3509C151.418 83.7751 148.912 94.2002 146.406 104.624" stroke="#36241A" stroke-miterlimit="10" stroke-linecap="round" stroke-linejoin="round"/>
</g>
</svg>
