<svg width="20" height="21" viewBox="0 0 20 21" fill="none" xmlns="http://www.w3.org/2000/svg">
<path d="M20 10.4477C20 9.75864 19.9333 9.04733 19.8222 8.38048H10.1973V12.3149H15.7099C15.4876 13.5819 14.7541 14.6933 13.6649 15.4046L16.9547 17.9609C18.8886 16.1604 20 13.5375 20 10.4477Z" fill="#4280EF"/>
<path d="M10.1973 20.406C12.9536 20.406 15.2653 19.4947 16.9547 17.9387L13.6649 15.4046C12.7535 16.027 11.5754 16.3827 10.1973 16.3827C7.52987 16.3827 5.28481 14.5822 4.46236 12.1815L1.08365 14.7822C2.81746 18.2276 6.32954 20.406 10.1973 20.406Z" fill="#34A353"/>
<path d="M4.46234 12.1593C4.04 10.8923 4.04 9.51416 4.46234 8.24714L1.08363 5.6242C-0.361211 8.51388 -0.361211 11.9148 1.08363 14.7823L4.46234 12.1593Z" fill="#F6B704"/>
<path d="M10.1973 4.04595C11.6421 4.02372 13.0647 4.57943 14.1095 5.57971L17.0214 2.64556C15.1764 0.911751 12.7313 -0.0218404 10.1973 0.000387949C6.32954 0.000387949 2.81746 2.17877 1.08365 5.62416L4.46236 8.24711C5.28481 5.82422 7.52987 4.04595 10.1973 4.04595Z" fill="#E54335"/>
</svg>
