<svg width="99" height="103" viewBox="0 0 99 103" fill="none" xmlns="http://www.w3.org/2000/svg">
<path d="M13.2204 0.952697C12.1191 -0.11234 10.2792 -0.31184 8.97532 0.493236C7.67148 1.29831 7.00648 3.40621 7.46594 4.86825C6.03414 4.69191 4.52977 5.36802 3.7116 6.55498C2.89242 7.74193 2.66573 9.80449 3.16752 11.1567C4.01592 13.4419 4.81694 15.5448 5.66534 17.8291C4.33732 16.8305 2.26871 17.3373 1.23592 18.6392C0.203124 19.941 0.0751661 21.7839 0.507428 23.388C0.93969 24.9931 1.80321 26.5841 2.72315 27.9686C1.48078 28.1731 0.49333 29.2472 0.15679 30.4604C-0.178742 31.6735 0.0560236 32.9895 0.559825 34.1432C1.06463 35.2969 1.97149 36.6178 2.77152 37.5902C9.37233 45.6077 16.8719 52.8856 25.0849 59.2416L45.3901 32.5592C34.8153 22.333 23.7952 11.1799 13.2204 0.952697Z" fill="#FBA778"/>
<path d="M7.16761 4.73526C8.98029 7.41951 10.792 10.1038 12.6047 12.788" stroke="#36241A" stroke-miterlimit="10" stroke-linecap="round" stroke-linejoin="round"/>
<path d="M4.90567 17.3101C6.05837 18.7591 7.21006 20.208 8.36276 21.6559" stroke="#36241A" stroke-miterlimit="10" stroke-linecap="round" stroke-linejoin="round"/>
<path d="M1.91705 27.3811C2.45008 28.033 2.98412 28.685 3.51714 29.3369" stroke="#36241A" stroke-miterlimit="10" stroke-linecap="round" stroke-linejoin="round"/>
<path d="M96.932 68.5226C94.542 62.6593 90.3161 57.6516 85.3093 53.7753L44.3039 25.4465C36.1594 36.4224 28.0321 46.9558 19.8866 57.9317C30.9068 71.8175 42.9154 84.9183 55.7916 97.1033C61.7244 102.718 71.6432 103.909 79.6315 102.204C87.6198 100.499 94.7687 94.7414 97.588 87.0746C99.7725 81.1317 99.3211 74.3858 96.932 68.5226Z" fill="#FFD700"/>
<path d="M44.2214 25.6833C57.681 34.7467 71.1395 43.8091 84.5991 52.8725" stroke="#36241A" stroke-miterlimit="10" stroke-linecap="round" stroke-linejoin="round"/>
<path d="M19.3779 58.098C29.2675 69.1826 39.1562 80.2683 49.0458 91.3539" stroke="#36241A" stroke-miterlimit="10" stroke-linecap="round" stroke-linejoin="round"/>
<path d="M32.0586 71.2522C40.868 59.5599 49.6785 47.8667 58.488 36.1745" stroke="#36241A" stroke-miterlimit="10" stroke-linecap="round" stroke-linejoin="round"/>
<path d="M25.1586 57.306C28.0756 60.2562 30.9926 63.2075 33.9096 66.1588" stroke="#36241A" stroke-miterlimit="10" stroke-linecap="round" stroke-linejoin="round"/>
<path d="M26.6277 54.5884C29.7009 57.5024 32.7741 60.4154 35.8473 63.3294" stroke="#36241A" stroke-miterlimit="10" stroke-linecap="round" stroke-linejoin="round"/>
<path d="M30.652 48.0773C33.5045 51.0961 36.357 54.1159 39.2085 57.1346" stroke="#36241A" stroke-miterlimit="10" stroke-linecap="round" stroke-linejoin="round"/>
<path d="M42.0662 33.456C45.5173 35.986 48.9693 38.5161 52.4204 41.0462" stroke="#36241A" stroke-miterlimit="10" stroke-linecap="round" stroke-linejoin="round"/>
<path d="M44.1791 30.6387C47.5324 33.0812 50.8857 35.5236 54.239 37.966" stroke="#36241A" stroke-miterlimit="10" stroke-linecap="round" stroke-linejoin="round"/>
</svg>
