<svg width="410" height="68" viewBox="0 0 410 68" fill="none" xmlns="http://www.w3.org/2000/svg">
<path d="M56 42.1875V30.9375C56 30.5417 56.0885 30.1667 56.2656 29.8125C56.4427 29.4583 56.6875 29.1667 57 28.9375L64.5 23.3125C64.9375 22.9792 65.4375 22.8125 66 22.8125C66.5625 22.8125 67.0625 22.9792 67.5 23.3125L75 28.9375C75.3125 29.1667 75.5573 29.4583 75.7344 29.8125C75.9115 30.1667 76 30.5417 76 30.9375V42.1875C76 42.875 75.7552 43.4635 75.2656 43.9531C74.776 44.4427 74.1875 44.6875 73.5 44.6875H69.75C69.3958 44.6875 69.099 44.5677 68.8594 44.3281C68.6198 44.0885 68.5 43.7917 68.5 43.4375V37.1875C68.5 36.8333 68.3802 36.5365 68.1406 36.2969C67.901 36.0573 67.6042 35.9375 67.25 35.9375H64.75C64.3958 35.9375 64.099 36.0573 63.8594 36.2969C63.6198 36.5365 63.5 36.8333 63.5 37.1875V43.4375C63.5 43.7917 63.3802 44.0885 63.1406 44.3281C62.901 44.5677 62.6042 44.6875 62.25 44.6875H58.5C57.8125 44.6875 57.224 44.4427 56.7344 43.9531C56.2448 43.4635 56 42.875 56 42.1875Z" fill="#FFD700"/>
<path d="M160.343 29.8914L159.034 28.583C158.877 28.4257 158.69 28.3525 158.473 28.3634C158.256 28.3744 158.069 28.4585 157.912 28.6158C157.755 28.7732 157.676 28.9602 157.676 29.177C157.676 29.3938 157.755 29.5808 157.912 29.7382L159.291 31.1172C159.59 31.4109 159.939 31.5591 160.339 31.5617C160.738 31.5644 161.088 31.4162 161.387 31.1172L164.61 27.8686C164.768 27.7112 164.846 27.5242 164.846 27.3074C164.846 27.0907 164.768 26.9036 164.61 26.7463C164.453 26.5889 164.267 26.5103 164.053 26.5103C163.839 26.5103 163.653 26.5889 163.496 26.7463L160.343 29.8914ZM145.517 45.2509C145.099 45.2509 144.745 45.1069 144.457 44.8188C144.169 44.5308 144.025 44.1773 144.025 43.7585C144.025 43.3397 144.169 42.9863 144.457 42.6982C144.745 42.4102 145.099 42.2661 145.517 42.2661H158.637C159.056 42.2661 159.409 42.4102 159.697 42.6982C159.986 42.9863 160.13 43.3397 160.13 43.7585C160.13 44.1773 159.986 44.5308 159.697 44.8188C159.409 45.1069 159.056 45.2509 158.637 45.2509H145.517ZM161.261 35.7768C159.389 35.7768 157.793 35.1176 156.475 33.7992C155.156 32.4808 154.497 30.8854 154.497 29.013C154.497 27.1406 155.156 25.5452 156.475 24.2268C157.793 22.9084 159.389 22.2491 161.261 22.2491C163.134 22.2491 164.729 22.9084 166.047 24.2268C167.366 25.5452 168.025 27.1406 168.025 29.013C168.025 30.8854 167.366 32.4808 166.047 33.7992C164.729 35.1176 163.134 35.7768 161.261 35.7768ZM145.517 34.4413C145.099 34.4413 144.745 34.2973 144.457 34.0092C144.169 33.7211 144.025 33.3677 144.025 32.9489C144.025 32.5302 144.169 32.1767 144.457 31.8887C144.745 31.6006 145.099 31.4566 145.517 31.4566H152.212C152.365 32.0056 152.554 32.5289 152.78 33.0263C153.006 33.5238 153.279 33.9954 153.6 34.4413H145.517ZM145.517 39.8461C145.099 39.8461 144.745 39.7021 144.457 39.414C144.169 39.126 144.025 38.7725 144.025 38.3537C144.025 37.9349 144.169 37.5815 144.457 37.2935C144.745 37.0054 145.099 36.8614 145.517 36.8614H156.154C156.73 37.2512 157.349 37.5708 158.012 37.8204C158.674 38.07 159.38 38.2359 160.13 38.3181V38.3929C160.13 38.8065 159.986 39.1521 159.697 39.4297C159.409 39.7073 159.056 39.8461 158.637 39.8461H145.517Z" fill="black"/>
<path d="M257.762 30.375C257.137 30.375 256.606 30.1562 256.169 29.7188C255.731 29.2812 255.512 28.75 255.512 28.125C255.512 27.5 255.731 26.9688 256.169 26.5312C256.606 26.0938 257.137 25.875 257.762 25.875C258.387 25.875 258.919 26.0938 259.356 26.5312C259.794 26.9688 260.012 27.5 260.012 28.125C260.012 28.75 259.794 29.2812 259.356 29.7188C258.919 30.1562 258.387 30.375 257.762 30.375ZM244.262 30.375C243.637 30.375 243.106 30.1562 242.669 29.7188C242.231 29.2812 242.012 28.75 242.012 28.125C242.012 27.5 242.231 26.9688 242.669 26.5312C243.106 26.0938 243.637 25.875 244.262 25.875C244.887 25.875 245.419 26.0938 245.856 26.5312C246.294 26.9688 246.512 27.5 246.512 28.125C246.512 28.75 246.294 29.2812 245.856 29.7188C245.419 30.1562 244.887 30.375 244.262 30.375ZM251.012 34.5C250.387 34.5 249.856 34.2812 249.419 33.8438C248.981 33.4062 248.762 32.875 248.762 32.25C248.762 31.625 248.981 31.0938 249.419 30.6562C249.856 30.2188 250.387 30 251.012 30C251.637 30 252.169 30.2188 252.606 30.6562C253.044 31.0938 253.262 31.625 253.262 32.25C253.262 32.875 253.044 33.4062 252.606 33.8438C252.169 34.2812 251.637 34.5 251.012 34.5ZM251.012 26.25C250.387 26.25 249.856 26.0312 249.419 25.5938C248.981 25.1562 248.762 24.625 248.762 24C248.762 23.375 248.981 22.8438 249.419 22.4062C249.856 21.9687 250.387 21.75 251.012 21.75C251.637 21.75 252.169 21.9687 252.606 22.4062C253.044 22.8438 253.262 23.375 253.262 24C253.262 24.625 253.044 25.1562 252.606 25.5938C252.169 26.0312 251.637 26.25 251.012 26.25ZM251.012 45.75C250.512 45.75 250.006 45.7125 249.494 45.6375C248.981 45.5625 248.487 45.4625 248.012 45.3375V39.975C248.012 39.1 248.306 38.3438 248.894 37.7062C249.481 37.0687 250.187 36.75 251.012 36.75C251.837 36.75 252.544 37.0687 253.131 37.7062C253.719 38.3438 254.012 39.1 254.012 39.975V45.3375C253.537 45.4625 253.044 45.5625 252.531 45.6375C252.019 45.7125 251.512 45.75 251.012 45.75ZM245.762 44.55C245.262 44.35 244.781 44.125 244.319 43.875C243.856 43.625 243.412 43.35 242.987 43.05C242.287 42.55 241.731 41.9 241.319 41.1C240.906 40.3 240.7 39.45 240.7 38.55C240.7 37.9 240.631 37.2938 240.494 36.7313C240.356 36.1688 240.112 35.6375 239.762 35.1375C239.512 34.8125 239.044 34.3188 238.356 33.6562C237.669 32.9937 237.037 32.375 236.462 31.8C236.187 31.525 236.05 31.175 236.05 30.75C236.05 30.325 236.187 29.975 236.462 29.7C236.737 29.425 237.087 29.2875 237.512 29.2875C237.937 29.2875 238.287 29.425 238.562 29.7L244.3 35.1375C244.8 35.5875 245.169 36.1188 245.406 36.7313C245.644 37.3438 245.762 37.975 245.762 38.625V44.55ZM256.262 44.55V38.625C256.262 37.975 256.387 37.3375 256.637 36.7125C256.887 36.0875 257.25 35.5625 257.725 35.1375L263.462 29.7C263.762 29.425 264.119 29.2875 264.531 29.2875C264.944 29.2875 265.287 29.425 265.562 29.7C265.837 29.975 265.975 30.325 265.975 30.75C265.975 31.175 265.837 31.525 265.562 31.8C264.987 32.375 264.356 32.9875 263.669 33.6375C262.981 34.2875 262.512 34.7875 262.262 35.1375C261.912 35.6375 261.669 36.1688 261.531 36.7313C261.394 37.2938 261.325 37.9 261.325 38.55C261.325 39.45 261.119 40.3062 260.706 41.1188C260.294 41.9313 259.725 42.5875 259 43.0875C258.6 43.3625 258.169 43.625 257.706 43.875C257.244 44.125 256.762 44.35 256.262 44.55Z" fill="black"/>
<path d="M344 33.75C342.625 33.75 341.448 33.2604 340.469 32.2812C339.49 31.3021 339 30.125 339 28.75C339 27.375 339.49 26.1979 340.469 25.2188C341.448 24.2396 342.625 23.75 344 23.75C345.375 23.75 346.552 24.2396 347.531 25.2188C348.51 26.1979 349 27.375 349 28.75C349 30.125 348.51 31.3021 347.531 32.2812C346.552 33.2604 345.375 33.75 344 33.75ZM334 41.25V40.25C334 39.5417 334.182 38.8906 334.547 38.2969C334.911 37.7031 335.396 37.25 336 36.9375C337.292 36.2917 338.604 35.8073 339.938 35.4844C341.271 35.1615 342.625 35 344 35C345.375 35 346.729 35.1615 348.062 35.4844C349.396 35.8073 350.708 36.2917 352 36.9375C352.604 37.25 353.089 37.7031 353.453 38.2969C353.818 38.8906 354 39.5417 354 40.25V41.25C354 41.9375 353.755 42.526 353.266 43.0156C352.776 43.5052 352.188 43.75 351.5 43.75H336.5C335.812 43.75 335.224 43.5052 334.734 43.0156C334.245 42.526 334 41.9375 334 41.25Z" fill="black"/>
</svg>
