<svg width="17" height="16" viewBox="0 0 17 16" fill="none" xmlns="http://www.w3.org/2000/svg">
<path d="M8.5 13.4042L4.37983 15.8502C4.19781 15.9643 4.00752 16.0133 3.80896 15.9969C3.6104 15.9806 3.43666 15.9154 3.28774 15.8013C3.13881 15.6871 3.02299 15.5444 2.94025 15.3732C2.85752 15.202 2.84097 15.0104 2.89061 14.7984L3.9827 10.1754L0.334119 7.06899C0.168651 6.92222 0.0652329 6.75508 0.0238657 6.56755C-0.0175015 6.38002 -0.00509134 6.19657 0.0610961 6.0172C0.127284 5.83782 0.226565 5.69106 0.35894 5.57692C0.491315 5.46277 0.67333 5.38939 0.904987 5.35677L5.72013 4.94095L7.58165 0.587044C7.66438 0.391363 7.79262 0.244602 7.96636 0.146761C8.14011 0.0489203 8.31798 0 8.5 0C8.68202 0 8.85989 0.0489203 9.03364 0.146761C9.20738 0.244602 9.33562 0.391363 9.41835 0.587044L11.2799 4.94095L16.095 5.35677C16.3267 5.38939 16.5087 5.46277 16.6411 5.57692C16.7734 5.69106 16.8727 5.83782 16.9389 6.0172C17.0051 6.19657 17.0175 6.38002 16.9761 6.56755C16.9348 6.75508 16.8314 6.92222 16.6659 7.06899L13.0173 10.1754L14.1094 14.7984C14.159 15.0104 14.1425 15.202 14.0597 15.3732C13.977 15.5444 13.8612 15.6871 13.7123 15.8013C13.5633 15.9154 13.3896 15.9806 13.191 15.9969C12.9925 16.0133 12.8022 15.9643 12.6202 15.8502L8.5 13.4042Z" fill="#FFB700"/>
</svg>
