<svg width="330" height="260" viewBox="0 0 330 260" fill="none" xmlns="http://www.w3.org/2000/svg">
<path d="M104.875 91.0317C103.963 92.7292 104.052 94.6921 104.931 96.2565C106.72 96.1258 108.406 95.1171 109.318 93.4196C110.23 91.7221 110.142 89.7592 109.263 88.1948C107.474 88.3255 105.787 89.335 104.875 91.0317Z" fill="#88BAFF"/>
<path d="M143.962 2.8369C143.049 4.53438 143.138 6.49729 144.017 8.06167C145.806 7.93097 147.492 6.92225 148.405 5.22476C149.316 3.52727 149.228 1.56438 148.349 0C146.561 0.130699 144.873 1.14021 143.962 2.8369Z" fill="#88BAFF"/>
<path d="M284.657 136.755C283.526 138.315 283.35 140.272 284.011 141.94C285.801 142.05 287.608 141.277 288.739 139.718C289.871 138.158 290.046 136.201 289.386 134.533C287.596 134.422 285.789 135.196 284.657 136.755Z" fill="#88BAFF"/>
<path d="M280.945 164.186C281.603 165.997 283.125 167.239 284.877 167.627C285.972 166.207 286.344 164.277 285.686 162.466C285.029 160.655 283.506 159.412 281.755 159.025C280.66 160.445 280.289 162.375 280.945 164.186Z" fill="#FFCA5E"/>
<path d="M312.217 222.528C311.387 224.266 311.57 226.223 312.521 227.744C314.302 227.528 315.939 226.439 316.769 224.701C317.599 222.962 317.417 221.005 316.464 219.485C314.683 219.701 313.047 220.789 312.217 222.528Z" fill="#FFCA5E"/>
<path d="M72.2279 246.625C70.33 246.955 68.8393 248.236 68.1505 249.893C69.3573 251.22 71.1919 251.925 73.0907 251.595C74.9886 251.265 76.4792 249.984 77.168 248.327C75.9612 247 74.1267 246.296 72.2279 246.625Z" fill="#88BAFF"/>
<path d="M9.74605 131.658C10.6235 133.018 12.1036 133.749 13.6099 133.738C14.2402 132.37 14.1823 130.72 13.3049 129.361C12.4275 128.002 10.9474 127.271 9.44101 127.281C8.81073 128.649 8.86864 130.299 9.74605 131.658Z" fill="#FA6C3A"/>
<path d="M328.068 74.9581L329.418 69.1528L323.715 70.8871L328.068 74.9581Z" fill="#FFCA5E"/>
<path d="M70.3061 140.483V134.523L65.1439 137.503L70.3061 140.483Z" fill="#88BAFF"/>
<path d="M74.6619 74.922L78.9076 70.738L73.1616 69.1528L74.6619 74.922Z" fill="#FA6C3A"/>
<path d="M59.1306 208.43L64.8886 206.888L60.6734 202.673L59.1306 208.43Z" fill="#FA6C3A"/>
<path d="M110.244 45.2394L115.691 42.8211L110.873 39.3122L110.244 45.2394Z" fill="#36241A"/>
<path d="M43.6967 101.424C44.5823 101.424 45.3003 100.706 45.3003 99.8206C45.3003 98.935 44.5823 98.217 43.6967 98.217C42.811 98.217 42.093 98.935 42.093 99.8206C42.093 100.706 42.811 101.424 43.6967 101.424Z" fill="#88BAFF"/>
<path d="M197.035 26.2583C197.921 26.2583 198.639 25.5403 198.639 24.6546C198.639 23.7689 197.921 23.0509 197.035 23.0509C196.15 23.0509 195.432 23.7689 195.432 24.6546C195.432 25.5403 196.15 26.2583 197.035 26.2583Z" fill="#FFCA5E"/>
<path d="M301.685 13.1687C302.57 13.1687 303.288 12.4508 303.288 11.5651C303.288 10.6794 302.57 9.9614 301.685 9.9614C300.799 9.9614 300.081 10.6794 300.081 11.5651C300.081 12.4508 300.799 13.1687 301.685 13.1687Z" fill="#36241A"/>
<path d="M11.6258 69.3535C12.5115 69.3535 13.2295 68.6355 13.2295 67.7498C13.2295 66.8641 12.5115 66.1461 11.6258 66.1461C10.7401 66.1461 10.0221 66.8641 10.0221 67.7498C10.0221 68.6355 10.7401 69.3535 11.6258 69.3535Z" fill="#FFCA5E"/>
<path d="M295.252 104.431C296.138 104.431 296.856 103.713 296.856 102.827C296.856 101.942 296.138 101.224 295.252 101.224C294.367 101.224 293.649 101.942 293.649 102.827C293.649 103.713 294.367 104.431 295.252 104.431Z" fill="#FFCA5E"/>
<path d="M253.2 106.468C251.355 107.027 250.032 108.481 249.551 110.209C250.91 111.38 252.818 111.854 254.662 111.296C256.506 110.738 257.829 109.284 258.311 107.556C256.951 106.385 255.043 105.909 253.2 106.468Z" fill="#FA6C3A"/>
<path d="M273.56 75.1016L273.931 69.1528L268.593 71.806L273.56 75.1016Z" fill="#36241A"/>
<path d="M248.045 30.8246L252.291 26.6406L246.545 25.0553L248.045 30.8246Z" fill="#FA6C3A"/>
<path d="M216.077 72.3601C216.963 72.3601 217.681 71.6421 217.681 70.7564C217.681 69.8707 216.963 69.1528 216.077 69.1528C215.192 69.1528 214.474 69.8707 214.474 70.7564C214.474 71.6421 215.192 72.3601 216.077 72.3601Z" fill="#FFCA5E"/>
<path d="M167.971 58.3291C168.857 58.3291 169.575 57.6111 169.575 56.7254C169.575 55.8398 168.857 55.1218 167.971 55.1218C167.085 55.1218 166.368 55.8398 166.368 56.7254C166.368 57.6111 167.085 58.3291 167.971 58.3291Z" fill="#FA6C3A"/>
<path d="M200.529 107.663C201.415 107.663 202.133 106.946 202.133 106.06C202.133 105.174 201.415 104.456 200.529 104.456C199.644 104.456 198.926 105.174 198.926 106.06C198.926 106.946 199.644 107.663 200.529 107.663Z" fill="#36241A"/>
<path d="M1.60367 29.4908C2.48936 29.4908 3.20735 28.7728 3.20735 27.8871C3.20735 27.0015 2.48936 26.2835 1.60367 26.2835C0.717989 26.2835 0 27.0015 0 27.8871C0 28.7728 0.717989 29.4908 1.60367 29.4908Z" fill="#88BAFF"/>
<path d="M60.7343 11.2251C61.62 11.2251 62.338 10.5071 62.338 9.62139C62.338 8.7357 61.62 8.01771 60.7343 8.01771C59.8486 8.01771 59.1306 8.7357 59.1306 9.62139C59.1306 10.5071 59.8486 11.2251 60.7343 11.2251Z" fill="#FA6C3A"/>
<path d="M290.241 192.626C291.127 192.626 291.845 191.908 291.845 191.022C291.845 190.136 291.127 189.418 290.241 189.418C289.356 189.418 288.638 190.136 288.638 191.022C288.638 191.908 289.356 192.626 290.241 192.626Z" fill="#36241A"/>
<path d="M328.325 169.801C329.211 169.801 329.929 169.083 329.929 168.197C329.929 167.311 329.211 166.593 328.325 166.593C327.44 166.593 326.722 167.311 326.722 168.197C326.722 169.083 327.44 169.801 328.325 169.801Z" fill="#FA6C3A"/>
<path d="M25.6568 260C26.5425 260 27.2605 259.282 27.2605 258.396C27.2605 257.511 26.5425 256.793 25.6568 256.793C24.7711 256.793 24.0531 257.511 24.0531 258.396C24.0531 259.282 24.7711 260 25.6568 260Z" fill="#36241A"/>
<path d="M7.49853 222.678C8.38422 222.678 9.10221 221.96 9.10221 221.074C9.10221 220.188 8.38422 219.47 7.49853 219.47C6.61285 219.47 5.89486 220.188 5.89486 221.074C5.89486 221.96 6.61285 222.678 7.49853 222.678Z" fill="#FFCA5E"/>
<path d="M28.6634 174.586C29.5491 174.586 30.2671 173.868 30.2671 172.982C30.2671 172.097 29.5491 171.379 28.6634 171.379C27.7778 171.379 27.0598 172.097 27.0598 172.982C27.0598 173.868 27.7778 174.586 28.6634 174.586Z" fill="#FA6C3A"/>
</svg>
