<svg width="15" height="15" viewBox="0 0 15 15" fill="none" xmlns="http://www.w3.org/2000/svg">
<path d="M6.17151 8.82848H1.32846C0.959384 8.82848 0.6457 8.69934 0.38741 8.44105C0.129137 8.18276 0 7.86908 0 7.5C0 7.13092 0.129137 6.81723 0.38741 6.55894C0.6457 6.30065 0.959384 6.17151 1.32846 6.17151H6.17151V1.32846C6.17151 0.959384 6.30065 0.645699 6.55894 0.38741C6.81723 0.129136 7.13092 0 7.5 0C7.86908 0 8.18276 0.129136 8.44105 0.38741C8.69934 0.645699 8.82848 0.959384 8.82848 1.32846V6.17151H13.6715C14.0406 6.17151 14.3543 6.30065 14.6126 6.55894C14.8709 6.81723 15 7.13092 15 7.5C15 7.86908 14.8709 8.18276 14.6126 8.44105C14.3543 8.69934 14.0406 8.82848 13.6715 8.82848H8.82848V13.6715C8.82848 14.0406 8.69934 14.3543 8.44105 14.6126C8.18276 14.8709 7.86908 15 7.5 15C7.13092 15 6.81723 14.8709 6.55894 14.6126C6.30065 14.3543 6.17151 14.0406 6.17151 13.6715V8.82848Z" fill="#00BB07"/>
</svg>
