<svg width="43" height="70" viewBox="0 0 43 70" fill="none" xmlns="http://www.w3.org/2000/svg">
<path d="M14.5 19.3848C14.5 19.3848 11.205 22.7028 10.108 25.1168C9.00901 27.5328 10.108 32.3158 10.108 32.3158C10.108 32.3158 10.244 34.7108 12.626 34.7108C15.011 34.7108 15.742 22.1888 15.742 22.1888L14.5 19.3848Z" fill="#FFC8A5"/>
<path d="M34.004 29.522H8.22702L0 38.983V69.093H42.233V38.983L34.004 29.522Z" fill="#FFD700"/>
<path d="M21.87 48.0269C21.87 48.4409 21.537 48.7758 21.122 48.7758C20.706 48.7758 20.37 48.4409 20.37 48.0269C20.37 47.6139 20.706 47.2769 21.122 47.2769C21.537 47.2769 21.87 47.6139 21.87 48.0269Z" fill="#785000"/>
<path d="M33.9211 61.4579H8.31104C8.31104 54.3849 14.045 48.6519 21.122 48.6519C28.188 48.6519 33.9211 54.3849 33.9211 61.4579Z" fill="#785000"/>
<path d="M35.221 63.7511H7.01202C6.65302 63.7511 6.36401 63.4611 6.36401 63.1031C6.36401 62.7451 6.65302 62.4541 7.01202 62.4541H35.221C35.579 62.4541 35.869 62.7451 35.869 63.1031C35.869 63.4611 35.58 63.7511 35.221 63.7511Z" fill="#785000"/>
<g opacity="0.2">
<path d="M21.117 29.522V69.093H42.233V38.983L34.004 29.522H21.117Z" fill="#FFD700"/>
</g>
<path d="M34.004 29.522L39.901 38.983V69.093H42.233V38.983L34.004 29.522Z" fill="#FFD700"/>
<path d="M13.913 18.7988C13.913 18.7988 13.913 19.6278 13.913 21.5798C13.913 23.5318 12.354 25.6308 12.354 28.9988C12.354 32.3648 12.658 35.1578 12.846 36.7638C13.035 38.3678 13.475 39.7818 15.72 39.7818C17.965 39.7818 18.014 38.0258 18.014 37.5868C17.901 38.3978 18.356 39.7818 20.698 39.7818C23.041 39.7818 23.28 37.6848 23.28 37.6848C23.28 38.9518 23.988 39.2458 25.55 39.0508C27.111 38.8558 27.627 37.7798 27.627 36.9508C27.677 37.9758 28.498 38.2948 29.644 38.1718C30.79 38.0488 32.158 37.4318 32.312 36.1228C32.312 36.1228 33.197 30.4708 33.197 26.8098C33.197 24.7118 31.777 22.0688 31.777 18.7988H13.913Z" fill="#FFE1C3"/>
<path d="M32.164 8.74707H13.3831V19.5801H32.164V8.74707Z" fill="#F0F0F0"/>
<path d="M33.53 0H12.016V16.75H33.53V0Z" fill="#C80000"/>
<g opacity="0.2">
<path d="M33.53 0H22.774V16.75H33.53V0Z" fill="#C80000"/>
</g>
<path d="M18.014 38.0431L17.575 34.0741C17.548 33.8301 17.723 33.6121 17.966 33.5851C18.208 33.5591 18.427 33.7341 18.454 33.9761C18.458 34.0091 18.456 34.0421 18.454 34.0751L18.014 38.0431Z" fill="#FFC3A0"/>
<path d="M23.307 38.0431L22.869 34.0741C22.84 33.8301 23.016 33.6121 23.259 33.5851C23.502 33.5591 23.721 33.7341 23.748 33.9761C23.75 34.0091 23.749 34.0421 23.748 34.0751L23.307 38.0431Z" fill="#FFC3A0"/>
<path d="M27.6261 37.242L27.1881 33.272C27.1611 33.029 27.3351 32.811 27.5791 32.785C27.8211 32.758 28.0401 32.933 28.0671 33.176C28.0691 33.207 28.0691 33.242 28.0671 33.273L27.6261 37.242Z" fill="#FFC3A0"/>
</svg>
